<?xml version="1.0" encoding="utf-8"?>
<!-- Generator: Adobe Illustrator 13.0.2, SVG Export Plug-In . SVG Version: 6.00 Build 14948)  -->
<!DOCTYPE svg PUBLIC "-//W3C//DTD SVG 1.1//EN" "http://www.w3.org/Graphics/SVG/1.1/DTD/svg11.dtd">
<svg version="1.1" id="Ebene_1" xmlns="http://www.w3.org/2000/svg" xmlns:xlink="http://www.w3.org/1999/xlink" x="0px" y="0px"
	 width="48px" height="48px" viewBox="0 0 48 48" enable-background="new 0 0 48 48" xml:space="preserve">
<g>
	<path fill="#FFFFFF" stroke="#BE261C" stroke-width="6.6112" stroke-linecap="round" stroke-linejoin="round" d="M23.7,11L9.2,37
		h29.6L23.7,11z"/>
	<path fill="#FFFFFF" stroke="#BE261C" d="M23.7,11.9L10.3,36.1h27.5L23.8,12L23.7,11.9z"/>
	<g>
		<path stroke="#BE261C" d="M24.1,34c-1.1,0-1.8-0.8-1.8-1.8c0-1.101,0.7-1.8,1.8-1.8s1.8,0.699,1.8,1.8C25.9,33.2,25.2,34,24.1,34
			L24.1,34z M22.9,29.3l-0.4-9.1h3.2l-0.4,9.1H23H22.9z"/>
	</g>
</g>
<g id="crop_x0020_marks" display="none">
	<path display="inline" fill="none" d="M48,48H0V0h48V48z"/>
</g>
</svg>
